<svg xmlns="http://www.w3.org/2000/svg" viewBox="0 0 340.16 55.77"><defs><style>.cls-1{fill:#59194e;}</style></defs><title>logo.svg</title><g id="レイヤー_2" data-name="レイヤー 2"><g id="レイヤー_1-2" data-name="レイヤー 1"><path class="cls-1" d="M10.18,38.87c1.56,1.86,1,4.87-1.2,6.74s-5.29,1.87-6.85,0-1-4.87,1.21-6.74,5.29-1.87,6.84,0"/><path class="cls-1" d="M17.32,12.95C8.72,20.16,2.68,28.38.49,35h0c-.87,2.68-.57,4.33.77,2.09a31.09,31.09,0,0,1,7.17-8.37c7.18-6,15.24-8.24,18-5,2.05,2.45.59,7.25-3.25,12-3.31,4.23-.5,7.78,4.13,4.82h0a74,74,0,0,0,8.22-6c13.94-11.7,21.16-26,16.13-32S31.26,1.25,17.32,12.95"/><path class="cls-1" d="M60.68,41.83c2.08-.27,2.52-.77,3.22-5.17l2.72-16.86c.63-3.94.55-4.71-1.84-5.21l-1.08-.23a.7.7,0,0,1,.08-1.22c1,0,1.91.09,2.9.09s2.09,0,3.17,0h9.22c3,0,5.48,0,6.5-.14-.21.77-.78,4.17-1.05,6.57-.13.36-1.25.45-1.51,0-.13-2-.35-3.26-1.48-3.85A10.15,10.15,0,0,0,76.86,15h-3c-1.23,0-1.3.14-1.53,1.63l-1.47,9.2c-.16,1-.09,1.18,1,1.18H75c3.45,0,4.25-.32,5.06-2.31l.5-1.27c.23-.36,1.28-.27,1.53.09-.3,1-.67,2.86-1,4.53s-.44,3.4-.61,4.62c-.23.36-1.17.36-1.51,0L79,31.32c-.1-1.77-1-2.22-4.15-2.22H71.55c-1.09,0-1.26.09-1.44,1.31l-1,6.25c-.63,3.94-.62,4.89,1.84,5.17l1.73.18a.89.89,0,0,1-.07,1.31c-2.71-.09-4.8-.14-6.92-.14s-3.92,0-6.31.14c-.42-.27-.55-1-.12-1.31Z"/><path class="cls-1" d="M88.73,25.68A9.64,9.64,0,0,1,96,22.37c4.58,0,6.87,3,7.43,6.71a13.6,13.6,0,0,1-3.29,10.71,9.68,9.68,0,0,1-7.58,3.4,7.16,7.16,0,0,1-7.44-6.46,14.44,14.44,0,0,1,3.6-11.05m7.2,12.83c1.43-2.56,2.93-8.48,2.41-11.69-.22-1.33-.64-2.66-2.08-2.66-.93,0-1.92.54-3,2.17-1.93,3-3.64,8.88-3,12.53.24,1.48,1.09,2.56,2.27,2.56s2.24-.79,3.44-2.91"/><path class="cls-1" d="M106.28,37.76c-.53-3.26.78-8.14,3.91-11.64a10,10,0,0,1,7.57-3.75c2.68,0,4.7,1.38,5,3.35s-1.46,2.71-2.64,2.71a1.71,1.71,0,0,1-1.77-1.38c-.28-1.09-.39-2.71-1.73-2.71-1,0-2.21,1-3.29,3.16a16.62,16.62,0,0,0-1.66,9.67c.36,2.22,1.36,3,2.6,3,1.54,0,3.24-.94,5-3a1,1,0,0,1,1.09,1c-1.51,2.42-4.83,5.08-8.64,5.08-2.78,0-4.83-1.87-5.42-5.43"/><path class="cls-1" d="M129.32,27.21c.18-.79,0-1.28-.37-1.28-1,0-3,1.92-4.19,3.31-.53-.1-1-.39-1-1,1.27-2.27,5.06-5.87,8.82-5.87a2.43,2.43,0,0,1,2.25,1.77,4.59,4.59,0,0,1-.09,1.33l-3.23,12.68c-.21.89.07,1.38.59,1.38s1.79-1,3.32-2.66c3.63-3.95,6-10.31,7.33-14.31a4.39,4.39,0,0,1,1.51-.2,3.89,3.89,0,0,1,2.73,1c-.76,3.21-2.43,9.67-3.61,15-.18.79,0,1.33.48,1.33.92,0,3.25-2.17,4.35-3.6a1,1,0,0,1,1.07.89c-1,2.42-5.37,6.17-9,6.17a1.85,1.85,0,0,1-1.9-2.17l1.89-7.95h-.1c-2.57,4.15-7.61,10.11-11,10.11a3,3,0,0,1-2.86-2.37,6.42,6.42,0,0,1,.22-2.42Z"/><path class="cls-1" d="M151.23,40c-.18-1.08.44-2.37,1.57-2.37a2,2,0,0,1,1.25.69c1.57,1.38,2.83,2.22,4.27,2.22a1.6,1.6,0,0,0,1.77-1.78c-.27-1.63-2.14-3.35-3.32-4.54a10,10,0,0,1-2.93-4.69c-.34-2.07.52-3.75,2.12-5.28a6.79,6.79,0,0,1,4.33-1.87c2.36,0,4.39,1.68,4.67,3.4a1.7,1.7,0,0,1-1.31,2.07,1.64,1.64,0,0,1-1.23-.59c-1.7-1.58-2.61-2.12-3.95-2.12a1.36,1.36,0,0,0-1.5,1.53c.27,1.63,2.2,3.06,3.32,4.24,1.81,1.92,2.8,3.3,3.07,5.23a5.75,5.75,0,0,1-2.05,5.08,8,8,0,0,1-5.44,2c-2.16,0-4.36-1.48-4.64-3.21"/><path class="cls-1" d="M186.81,40.43a16.68,16.68,0,0,1-.81-6.12,1.29,1.29,0,0,1,1.48.09,14.78,14.78,0,0,0,2.47,4.71,8,8,0,0,0,6.31,3c3,0,5.93-1.9,5.28-5.85-.47-2.9-3.16-5.17-6.11-7-2.22-1.4-5.35-4.08-5.93-7.61-.9-5.48,3.17-9.2,9.33-9.11a16.7,16.7,0,0,1,8.31,2.22,29.06,29.06,0,0,0-.88,5.62,1.14,1.14,0,0,1-1.54-.18c-.1-2.94-1.67-5.89-6.21-5.89-3.69,0-5.35,2.54-4.91,5.21.49,3,3.86,5.12,5.6,6.21,3.41,2.09,6.15,4.67,6.81,8.7.89,5.43-2.85,9.47-10.17,9.47-4.07,0-7.81-1.54-9-3.49"/><path class="cls-1" d="M220.45,31.05a58.65,58.65,0,0,1,1,10.26h.2a38.91,38.91,0,0,0,2.72-11.05,36.19,36.19,0,0,0,.15-6c-.14-1.48.48-1.77,1.2-1.77a4.69,4.69,0,0,1,2,.49,1.68,1.68,0,0,1,.88,1.28c.18,1.09-.36,7.21-3.67,14.7A57.83,57.83,0,0,1,218.16,51c-3,3.85-5.81,4.73-7.87,4.73-1.8,0-3.53-1.13-3.77-2.61a2.14,2.14,0,0,1,2.12-2.76,2.51,2.51,0,0,1,1.92,1c.81.84,1.3,1.33,2,1.33a3.74,3.74,0,0,0,2.68-1.23,11,11,0,0,0,2.17-5.92,37.71,37.71,0,0,0-.9-10.85c-1.09-5.67-2.16-8.49-3.29-8.49s-1.9,1.92-2.52,3.8a1.05,1.05,0,0,1-1.42-.49c.48-3,2.12-7.2,5.67-7.2,2.73,0,4.55,3.6,5.49,8.68"/><path class="cls-1" d="M231,40c-.18-1.08.44-2.37,1.57-2.37a2,2,0,0,1,1.25.69c1.57,1.38,2.83,2.22,4.28,2.22a1.59,1.59,0,0,0,1.76-1.78c-.26-1.63-2.14-3.35-3.31-4.54a10,10,0,0,1-2.93-4.69c-.34-2.07.52-3.75,2.12-5.28A6.79,6.79,0,0,1,240,22.37c2.37,0,4.39,1.68,4.68,3.4a1.7,1.7,0,0,1-1.31,2.07,1.64,1.64,0,0,1-1.23-.59c-1.7-1.58-2.61-2.12-3.95-2.12a1.36,1.36,0,0,0-1.5,1.53c.27,1.63,2.2,3.06,3.32,4.24,1.81,1.92,2.81,3.3,3.07,5.23A5.74,5.74,0,0,1,241,41.22a8,8,0,0,1-5.44,2c-2.16,0-4.36-1.48-4.64-3.21"/><path class="cls-1" d="M257.89,25.53l-2.54,12.78q-.27,1.18.5,1.18c.82,0,3.45-2.17,5-4.15a1,1,0,0,1,1,1.09c-1.73,3.26-6.2,6.76-9.49,6.76a2.29,2.29,0,0,1-2.13-1.68,7.58,7.58,0,0,1,.17-2.71L253,25.53H249A1.16,1.16,0,0,1,249.3,24l4.19-.79L256,18.37a2.08,2.08,0,0,1,1.19-.25,2.29,2.29,0,0,1,1.75.64l-.69,4.59h5.15a1.45,1.45,0,0,1-.06,2.17Z"/><path class="cls-1" d="M266.57,37.81A14.54,14.54,0,0,1,271.78,25a10.64,10.64,0,0,1,6.77-2.66,4.71,4.71,0,0,1,4.67,3.4c.73,4.44-5.87,6.86-11.35,8.34a9.45,9.45,0,0,0,.06,3.21c.3,1.83,1.29,2.81,2.73,2.81,1.85,0,3.53-1,5.56-3.11a1,1,0,0,1,1,1,10,10,0,0,1-8.93,5.18c-3.4,0-5.28-2.66-5.72-5.38m8.12-11.69A13.75,13.75,0,0,0,272,32.44a11.08,11.08,0,0,0,5.32-3.35,5.21,5.21,0,0,0,1.3-3.7,1.3,1.3,0,0,0-1.18-1.23c-.72,0-1.7.59-2.76,2"/><path class="cls-1" d="M296.18,24.94l-1.79,7.3h.1c2.46-4.79,6.21-9.87,10.17-9.87,3.14,0,3.44,2.76,3.28,4.29-.14,1-.85,3.9-1.37,5.77h.1C309.78,26,313.36,22.37,317,22.37a3.4,3.4,0,0,1,3.66,2.86,11.59,11.59,0,0,1-.3,3.8c-.53,2.42-2.12,7.8-2.67,9.77-.16.59-.1,1,.32,1,.93,0,3-1.78,4.18-3.36.6-.1,1,.3,1.07.89a10.31,10.31,0,0,1-8.92,5.87,2.41,2.41,0,0,1-2.11-1.58,7.81,7.81,0,0,1,.56-2.91c.85-3,1.95-7,2.69-10a8.46,8.46,0,0,0,.35-2.91c-.08-.49-.25-.89-.92-.89-1,0-2.65,1.43-4.62,4.44-2.14,3.26-3.78,8-5.6,12.93-.25.69-.63.89-1.45.89-1.44,0-3-.3-2.81-1.48.06-.29,2.42-10.36,3.12-13a8.45,8.45,0,0,0,.47-2.81c-.1-.59-.37-1-.93-1-1.13,0-2.91,1.38-5,4.54s-3.69,7.94-5.31,12.83c-.2.69-.58.89-1.4.89-1.55,0-3-.3-2.82-1.48.07-.49,2.8-13.07,3-14.45s.09-1.68-.64-1.68c-1.65,0-3,1.58-3.87,2.76a1.11,1.11,0,0,1-1.07-.89c1-2.71,3.59-5.08,8.12-5.08a2,2,0,0,1,2.07,2.56"/><path class="cls-1" d="M326.39,40c-.18-1.08.44-2.37,1.57-2.37a2,2,0,0,1,1.25.69c1.57,1.38,2.83,2.22,4.28,2.22a1.6,1.6,0,0,0,1.77-1.78c-.27-1.63-2.15-3.35-3.32-4.54A10,10,0,0,1,329,29.53c-.34-2.07.52-3.75,2.12-5.28a6.79,6.79,0,0,1,4.33-1.87c2.37,0,4.39,1.68,4.67,3.4a1.7,1.7,0,0,1-1.31,2.07,1.64,1.64,0,0,1-1.23-.59c-1.7-1.58-2.61-2.12-3.95-2.12a1.36,1.36,0,0,0-1.5,1.53c.27,1.63,2.2,3.06,3.32,4.24,1.81,1.92,2.8,3.3,3.07,5.23a5.74,5.74,0,0,1-2,5.08,8,8,0,0,1-5.44,2c-2.16,0-4.36-1.48-4.64-3.21"/></g></g></svg>