<svg xmlns="http://www.w3.org/2000/svg" xmlns:xlink="http://www.w3.org/1999/xlink" viewBox="0 0 196.357 35.856"><defs><clipPath id="logo"><rect width="196.357" height="35.856" fill="none"/></clipPath></defs><g transform="translate(-31.182 -49.072)"><g transform="translate(31.182 49.072)"><rect width="35.856" height="35.856" transform="translate(0 0)" fill="#003e92"/><path d="M51.968,13.617,46.107,18.43l1.99-4.813Z" transform="translate(-17.495 -5.167)" fill="#f99900"/><g transform="translate(0 0)"><g clip-path="url(#logo)"><path d="M14.665,23.9a.432.432,0,0,0-.03-.148l0,0-4.074-9.9,0,0a.432.432,0,0,0-.4-.261H4.053a.434.434,0,0,0-.434.433.421.421,0,0,0,.03.146l0,0,4.071,9.889,0,0a.433.433,0,0,0,.4.271h6.113a.433.433,0,0,0,.433-.433" transform="translate(-1.373 -5.155)" fill="#fff"/><path d="M35.894,14.164a.424.424,0,0,0,.029-.146.433.433,0,0,0-.433-.433H26.374a.432.432,0,0,0-.4.261l0,0L17.9,33.52a.839.839,0,0,0-.027.153.434.434,0,0,0,.433.434l14.823-.012L28.6,31.951l7.3-17.782Z" transform="translate(-6.782 -5.155)" fill="#fff"/><path d="M82.126,3.978a57.478,57.478,0,0,1,5.2,12.76l-7.253,2.4A55.807,55.807,0,0,0,75.3,6.072Zm24.551,1.629c-.349.776-.349.776-1.047,3.917-1.513,7.1-4.538,13.614-8.339,18.074a38.828,38.828,0,0,1-12.023,9.269,21.5,21.5,0,0,0-5.12-5.973,31.846,31.846,0,0,0,7.99-4.654c5.275-4.189,8.339-9.308,10.239-16.91A28.31,28.31,0,0,0,99.23,3.9Z" transform="translate(-28.573 -1.48)" fill="#1a1311"/><path d="M148.7,2.337a46.693,46.693,0,0,0-.194,5.2v7.718A50.756,50.756,0,0,0,148.7,20.8h-7.524a40.291,40.291,0,0,0,.233-5.663V7.457a38.884,38.884,0,0,0-.233-5.12Zm18.034,0c-.155,2.172-.194,2.753-.194,5.236v4.537c0,5.313-.31,9.036-.892,11.287-1.164,4.227-3.8,7.408-8.067,9.851a32.491,32.491,0,0,1-8.067,3.18,17.736,17.736,0,0,0-3.956-6.632,25.028,25.028,0,0,0,7.679-2.366c3.413-1.823,5.159-4.111,5.779-7.525a65.862,65.862,0,0,0,.426-8.222V7.651a37.528,37.528,0,0,0-.233-5.314Z" transform="translate(-53.569 -0.886)" fill="#1a1311"/><path d="M204.208,11.585c-3.219,0-4.577.038-6.283.194V4.953a48.79,48.79,0,0,0,6.4.31l21.254-.038a7.372,7.372,0,0,0,2.676-.388l3.723,4.189a8.94,8.94,0,0,0-1.784,2.482c-3.994,6.71-7.175,10.549-12.295,14.854,1.668,1.978,2.754,3.375,4.616,5.9L216.7,36.8a65.4,65.4,0,0,0-7.485-10.123,57.875,57.875,0,0,0-7.8-7.718l5.313-3.723a60.118,60.118,0,0,1,6.71,6.167,42.674,42.674,0,0,0,6.05-6.129,26.946,26.946,0,0,0,2.482-3.762Z" transform="translate(-75.103 -1.835)" fill="#1a1311"/><path d="M293.235,5.657a14.508,14.508,0,0,0-2.172.659,57.488,57.488,0,0,1-7.524,1.862c-.039,1.939-.078,4.422-.117,5.275h6.361a48.443,48.443,0,0,0,6.127-.272v6.361a52.644,52.644,0,0,0-6.011-.194H283a19.583,19.583,0,0,1-2.6,8.223,21.037,21.037,0,0,1-6.438,6.205,21.7,21.7,0,0,1-3.762,1.978,17.827,17.827,0,0,0-4.809-5.818c4.693-1.707,7.1-3.219,8.765-5.546a10.113,10.113,0,0,0,1.9-5.042h-7.641a53.468,53.468,0,0,0-6.05.194V13.182a37.54,37.54,0,0,0,6.166.272h8.145c.078-1.164.078-1.9.078-3.259V9.109c-3.685.388-4,.388-10.24.66a19.939,19.939,0,0,0-1.978-5.9c1.319.078,2.017.078,2.6.078a81.177,81.177,0,0,0,16.988-2.017A23.023,23.023,0,0,0,289.008.15Z" transform="translate(-99.554 -0.057)" fill="#1a1311"/></g></g></g></g></svg>